<?xml version="1.0" encoding="UTF-8" standalone="no"?>
<!-- Created with Inkscape (http://www.inkscape.org/) -->

<svg
   width="179.87569mm"
   height="208.23767mm"
   viewBox="0 0 179.87568 208.23768"
   version="1.1"
   id="svg1"
   xmlns="http://www.w3.org/2000/svg"
   xmlns:svg="http://www.w3.org/2000/svg">
  <defs
     id="defs1" />
  <g
     id="layer1"
     transform="translate(-24.139058,-96.433776)">
    <path
       style="fill:#000000;stroke-width:0.250416"
       d="m 94.333211,304.36741 c -0.594014,-0.13836 -3.618056,-1.06002 -6.720091,-2.04813 -10.18958,-3.24576 -13.846463,-4.1239 -23.880338,-5.73455 -11.529682,-1.85076 -15.427581,-2.9322 -20.219524,-5.60976 -9.692658,-5.41592 -16.325444,-15.86789 -18.830184,-29.67272 -0.484007,-2.66761 -0.545047,-3.78163 -0.544003,-9.92869 9.61e-4,-6.02182 0.07213,-7.3665 0.545777,-10.32061 0.815994,-5.08933 2.022091,-10.06034 4.007736,-16.51815 6.555311,-21.31951 15.467663,-38.29603 26.93479,-51.30616 l 1.97673,-2.24272 -1.19419,-2.99706 c -1.40724,-3.53175 -1.721771,-5.0411 -1.367313,-6.56137 0.493646,-2.11723 3.018909,-4.09499 6.496423,-5.08794 l 1.530312,-0.43695 0.285909,-3.41033 c 0.489311,-5.8365 1.9325,-12.63289 3.750492,-17.66214 0.848787,-2.34807 2.962409,-7.08518 4.318502,-9.67877 l 0.62698,-1.19912 -0.747569,-1.28305 c -0.411162,-0.70568 -1.030645,-2.22366 -1.376624,-3.37331 -0.533417,-1.77246 -0.630537,-2.56692 -0.638817,-5.22562 -0.01157,-3.71714 0.377941,-5.54493 1.837492,-8.62227 1.23782,-2.60985 4.130079,-5.866672 6.331925,-7.130042 1.867146,-1.071331 4.746956,-1.884172 6.675444,-1.884172 4.468253,0 9.015642,2.654414 11.448391,6.682664 0.718286,1.18936 1.128268,1.6437 1.385911,1.53579 0.554023,-0.23201 3.977548,-1.06667 6.005958,-1.46425 1.16645,-0.22863 3.61628,-0.34746 6.96009,-0.33763 5.45082,0.016 7.91941,0.37941 11.37797,1.67483 0.77955,0.29199 1.55219,0.53088 1.71699,0.53088 0.16479,0 0.57331,-0.50841 0.90781,-1.12979 2.79596,-5.193925 8.59878,-8.074575 13.83042,-6.865756 2.46215,0.568901 4.18325,1.566014 5.91626,3.427566 4.25095,4.56624 4.74484,11.95263 1.1944,17.86275 -0.57124,0.95089 -1.37719,2.07423 -1.79101,2.4963 -0.41381,0.42208 -0.75239,0.85085 -0.75239,0.95282 0,0.36162 5.96971,9.81248 7.66055,12.12768 2.26887,3.1067 3.15648,5.077 3.31886,7.36716 0.11777,1.66091 0.19588,1.85968 1.18902,3.02574 1.76764,2.07542 2.95896,5.46622 2.94763,8.3897 -0.008,1.92316 -0.68627,4.68649 -1.70258,6.93097 -0.75456,1.66636 -1.44758,2.69784 -2.86431,4.26314 l -1.86892,2.0649 0.75995,1.74633 c 0.72062,1.65594 0.75914,1.90184 0.74434,4.75105 -0.0171,3.28528 -0.33408,4.65618 -1.90437,8.23508 -1.86432,4.24905 -6.08536,9.54755 -10.40109,13.05608 -1.21551,0.98817 -2.18057,1.86979 -2.14457,1.95917 0.036,0.0893 1.97677,2.19374 4.31285,4.67634 l 4.24742,4.51384 0.82005,-1.78448 c 0.45103,-0.98144 1.71425,-3.90084 2.80716,-6.48752 2.20184,-5.21128 2.2183,-5.24158 3.12289,-5.75083 0.61136,-0.34417 10.38337,-1.28033 32.73914,-3.13639 4.34691,-0.3609 9.35228,-0.83104 11.12302,-1.04479 4.68784,-0.56582 5.9367,-0.52834 6.40022,0.19211 0.20549,0.31938 0.37361,0.85416 0.37361,1.18842 0,0.33423 -2.31178,6.15751 -5.13732,12.9406 -2.82551,6.78308 -5.89331,14.15532 -6.81732,16.38274 l -1.67999,4.04987 0.51722,0.39115 c 3.25359,2.46044 4.95729,6.06556 4.95729,10.48982 0,5.44865 -2.12194,10.72491 -5.98409,14.87959 -2.88257,3.10089 -6.30439,4.62558 -9.73132,4.33609 -0.92666,-0.0783 -1.90353,-0.21637 -2.17083,-0.30687 -0.41476,-0.14044 -0.68531,0.21116 -1.84527,2.39804 -0.74759,1.40942 -1.68192,3.34782 -2.07629,4.30756 -0.39437,0.95973 -0.96801,1.92193 -1.27478,2.13821 -0.30675,0.21632 -1.63776,0.59685 -2.95777,0.84564 -1.32002,0.24883 -2.43758,0.48366 -2.48348,0.52188 -0.0459,0.0383 0.14843,0.74419 0.43183,1.56879 1.16192,3.38082 1.1177,7.88395 -0.12319,12.54565 -1.88392,7.07733 -5.95298,12.88219 -10.94418,15.61274 -4.15104,2.27092 -8.00318,2.54902 -13.40135,0.96757 -6.5375,-1.91524 -13.07658,-3.66583 -16.20023,-4.337 l -3.36005,-0.72198 -1.92003,1.50922 c -2.29312,1.80249 -5.47292,3.54301 -7.63879,4.18125 l -1.57358,0.46372 -1.12775,2.12088 c -1.43276,2.69448 -4.64597,6.23344 -6.74476,7.42846 -2.92056,1.66294 -7.213405,2.31134 -10.395499,1.57014 z m 7.543339,-5.78678 c 3.63399,-1.82102 6.19724,-5.74436 7.54089,-11.54217 1.04637,-4.51502 1.29544,-9.51642 0.60698,-12.18765 -1.06747,-4.1417 -4.69802,-5.81466 -8.43829,-3.88837 -3.933818,2.02601 -6.729015,6.96822 -7.804408,13.79905 -0.244582,1.5535 -0.497744,2.34664 -0.896513,2.80877 -0.707702,0.82009 -1.895403,0.86362 -2.534854,0.0929 -0.408412,-0.49225 -0.45852,-0.99911 -0.469523,-4.74934 l -0.01233,-4.19829 -3.707741,-3.03247 C 74.57205,266.20484 65.814527,262.33545 58.243859,263.34831 c -3.671418,0.49119 -7.458142,1.98472 -10.174107,4.01278 -1.435594,1.07199 -2.448298,1.43164 -2.719325,0.96576 -1.344481,-2.31117 2.75677,-6.79939 7.987919,-8.74164 10.040264,-3.72777 20.909001,-0.1279 35.656705,11.81007 1.486074,1.20293 2.751069,2.18718 2.811101,2.18718 0.06005,0 0.533147,-0.67975 1.051382,-1.51055 1.18284,-1.89621 3.66832,-4.44472 5.349859,-5.48554 2.231757,-1.38137 4.419727,-1.94968 7.109837,-1.84674 2.07818,0.0795 2.53354,0.18878 3.94706,0.94704 2.89186,1.55131 4.79839,4.59202 5.60467,8.93885 0.45289,2.44159 0.38034,7.51353 -0.15249,10.66255 -0.15321,0.90548 -0.21728,1.71301 -0.14237,1.79459 0.21914,0.23854 3.25178,-1.66669 5.1315,-3.22385 3.26869,-2.70781 5.91971,-6.33027 8.09417,-11.06019 1.24811,-2.7149 2.66679,-6.4852 2.50019,-6.64444 -0.0475,-0.0453 -1.78028,0.13772 -3.85075,0.40687 -4.16965,0.54198 -4.83969,0.44731 -5.25516,-0.74235 -0.27264,-0.78066 0.0794,-2.15474 1.30783,-5.10434 0.34412,-0.8263 0.57637,-1.50237 0.51612,-1.50237 -0.0602,0 -0.94991,0.30048 -1.977,0.66771 -10.71947,3.83286 -23.559817,4.94945 -34.507898,3.00078 -11.99652,-2.13526 -22.659979,-8.24558 -28.656182,-16.42042 -1.497175,-2.04116 -1.830272,-2.35755 -2.628344,-2.49647 -2.542763,-0.44266 -3.927532,-2.84363 -6.425583,-11.14101 -1.164936,-3.86938 -2.713481,-10.08967 -4.29268,-17.24312 -0.745348,-3.37627 -1.406644,-6.1947 -1.469549,-6.26319 -0.644894,-0.70206 -0.784492,6.9004 -0.203734,11.09544 0.640622,4.62748 1.894354,9.30129 4.642483,17.30685 l 0.738915,2.15252 -0.603348,0.16485 c -1.586919,0.43361 -6.56655,-3.02434 -10.519901,-7.3052 -1.479518,-1.60208 -2.981745,-3.29501 -3.338279,-3.76205 -0.356537,-0.46705 -0.728415,-0.84822 -0.826399,-0.84706 -0.193543,0.002 -1.654449,5.09926 -2.448188,8.54153 -1.863828,8.08302 -2.175088,17.39133 -0.823902,24.63909 0.527443,2.82919 2.057024,7.68264 3.220649,10.21929 3.164121,6.89766 8.363078,12.60621 14.027243,15.40216 3.870269,1.91047 7.528849,2.85795 16.566477,4.2904 10.350438,1.6405 15.638657,2.90722 25.783082,6.17598 6.193094,1.99557 6.413492,2.04364 9.017403,1.96718 1.765355,-0.0519 2.420075,-0.19373 3.583285,-0.77663 z m 51.33913,-11.1506 c 4.40291,-1.81378 8.11694,-6.76908 9.90135,-13.21047 0.82372,-2.97347 0.95338,-7.36093 0.27418,-9.27659 -0.64813,-1.828 -1.80582,-2.90312 -3.29361,-3.05876 -1.05455,-0.11032 -1.46279,0 -2.95362,0.80618 -2.73201,1.47535 -4.94258,4.26034 -6.93042,8.73128 -1.37405,3.09046 -2.31768,3.72635 -3.64536,2.4565 -0.36552,-0.3496 -0.4203,-0.66251 -0.30435,-1.7384 0.18288,-1.69693 1.11571,-4.66809 2.09114,-6.66042 0.42373,-0.86549 0.70583,-1.64396 0.62687,-1.72989 -0.13073,-0.14232 -12.11627,1.33437 -13.25452,1.63304 -0.38386,0.10069 -0.66077,0.74475 -1.31281,3.05336 -0.97606,3.45581 -3.50378,9.13421 -5.37318,12.07057 l -1.33073,2.09024 1.37155,0.32739 c 3.77006,0.89998 9.92904,2.58648 13.59443,3.72257 2.25354,0.69849 4.36734,1.32831 4.69734,1.39961 1.31931,0.28506 4.45755,-0.0461 5.84174,-0.61621 z m -21.35594,-26.91975 c 8.07862,-1.27142 28.15598,-3.81987 33.71024,-4.2789 2.41771,-0.19983 4.42535,-0.40456 4.46144,-0.455 0.0361,-0.0504 0.56442,-1.39894 1.1741,-2.9967 0.60966,-1.59776 1.65647,-4.17935 2.32622,-5.73688 l 1.21774,-2.83184 -0.15066,-2.49349 c -0.39637,-6.56027 2.53586,-12.32808 7.98806,-15.71286 0.89672,-0.55669 1.15442,-0.95704 2.25445,-3.50263 2.01812,-4.67022 12.69334,-30.52648 12.63078,-30.5928 -0.0317,-0.0335 -1.78548,0.10223 -3.89752,0.30164 -6.6959,0.63215 -36.56421,3.24854 -37.08483,3.24854 -0.38456,0 -0.68762,0.43544 -1.31838,1.8943 -10.57928,24.46827 -13.79752,31.98233 -13.79752,32.21496 0,0.15495 0.20537,0.74472 0.45636,1.3106 1.77408,3.99982 1.04121,10.21426 -1.79121,15.18874 -1.38112,2.42561 -4.35069,5.71422 -6.79633,7.52649 -1.58463,1.17423 -1.85453,1.50465 -2.66807,3.26601 -0.4978,1.07779 -1.07415,2.40053 -1.28076,2.93943 l -0.37567,0.97979 0.64777,-0.005 c 0.35627,-0.003 1.38848,-0.12175 2.29379,-0.26423 z m 16.17308,-25.7934 c -0.68894,-0.83882 -0.62742,-2.21356 0.13625,-3.04494 0.68456,-0.74525 0.93333,-0.78606 9.73448,-1.59669 10.48328,-0.96558 10.8307,-0.9307 10.8307,1.08777 0,1.27795 -1.01479,2.34805 -2.42102,2.55299 -2.26059,0.32945 -14.94242,1.45811 -16.38359,1.45811 -1.14577,0 -1.61398,-0.11286 -1.89682,-0.45724 z m 4.49029,-12.46431 c -0.75377,-0.8206 -0.76659,-1.97898 -0.0322,-2.90847 0.63898,-0.80871 -0.1828,-0.69553 13.12329,-1.80743 13.15606,-1.09936 12.79917,-1.0888 13.43388,-0.39783 0.4397,0.4787 0.51796,0.78552 0.41452,1.62518 -0.15649,1.27005 -0.71683,1.98479 -1.70118,2.16991 -1.65149,0.31058 -20.65601,1.95997 -22.58303,1.95997 -1.87373,0 -2.12105,-0.0598 -2.65529,-0.64133 z m 5.41099,-12.16146 c -0.72901,-0.79363 -0.63832,-2.21937 0.19917,-3.13111 0.83196,-0.90573 0.37199,-0.84206 13.30683,-1.842 11.28622,-0.87249 12.05474,-0.89863 12.89437,-0.43866 0.86797,0.47551 0.92478,1.7101 0.12622,2.74327 -0.76742,0.99287 -0.81696,1.00352 -6.93855,1.49151 -2.75677,0.21977 -7.91367,0.69207 -11.45977,1.04957 -7.75637,0.78194 -7.53031,0.7784 -8.12827,0.12742 z m -57.30458,48.59833 c 17.02696,-1.07643 31.61825,-7.78154 35.80383,-16.45286 3.08555,-6.39238 1.23002,-12.07784 -4.65962,-14.2773 -1.1169,-0.41711 -2.0032,-0.48992 -5.76007,-0.47323 -4.0364,0.0179 -4.8983,0.10921 -9.48014,1.00403 -8.91897,1.74186 -9.51998,1.81618 -14.64021,1.81047 -6.322634,-0.007 -12.29631,-0.91364 -15.995216,-2.42748 -1.477964,-0.60488 -4.022762,-2.2902 -5.059433,-3.35067 -0.618311,-0.63249 -0.790242,-0.66813 -3.120044,-0.64653 -3.893754,0.036 -7.772559,1.38263 -12.003458,4.16708 -3.276552,2.15637 -7.626423,7.02658 -7.620111,8.53164 0.0033,0.7808 0.9812,2.98424 2.170991,4.89161 6.077703,9.74328 18.53857,16.26826 32.865665,17.20968 1.650838,0.10848 3.109536,0.21302 3.241537,0.23233 0.132001,0.0193 2.047319,-0.0791 4.256279,-0.21877 z m 84.33624,-13.57651 c 2.1905,-1.36776 4.40962,-4.63033 5.52555,-8.1237 1.002,-3.13664 0.8238,-6.70207 -0.43241,-8.65232 l -0.44904,-0.69711 -1.85767,1.19144 c -4.95601,3.17858 -6.40483,4.53586 -7.64011,7.15734 -0.53147,1.12791 -0.68385,1.8587 -0.76945,3.69023 -0.0969,2.07246 -0.0477,2.41517 0.53139,3.7037 1.14295,2.54321 2.85705,3.12574 5.09174,1.73042 z M 89.29177,223.61242 c -7.25e-4,-0.0359 -0.706756,-2.35806 -1.568891,-5.1603 -2.410744,-7.83577 -4.63008,-12.33189 -8.054035,-16.3166 -1.317226,-1.53297 -4.034868,-3.80205 -4.553632,-3.80205 -0.111668,0 0.316212,0.74684 0.950848,1.65964 3.223074,4.63579 7.646995,14.02806 9.783922,20.77189 0.400829,1.26493 0.569096,1.46946 1.763138,2.14301 1.205099,0.67978 1.682334,0.88005 1.67865,0.70441 z m 29.49842,-22.52261 c 0.63837,-0.35217 2.2278,-1.37289 3.53206,-2.26827 1.30426,-0.89539 4.74596,-2.91439 7.64822,-4.48668 6.52225,-3.53339 8.72814,-5.09991 11.65469,-8.27662 2.60467,-2.8273 4.35233,-5.52771 5.51619,-8.52338 0.69439,-1.78729 0.80376,-2.3676 0.81715,-4.3353 0.0205,-3.00924 -0.25842,-3.27807 -1.36885,-1.31953 -0.96371,1.69975 -3.17501,4.10815 -4.13787,4.50667 -1.94295,0.80422 -4.01902,-0.14507 -5.9048,-2.69994 -1.9012,-2.57579 -2.35823,-4.65048 -1.39729,-6.34316 0.27276,-0.48046 1.0973,-1.44782 1.83229,-2.14969 l 1.33637,-1.27613 -1.08465,-0.81243 c -1.85543,-1.38974 -3.30076,-3.72518 -3.67491,-5.93812 -0.21769,-1.28748 -0.42786,-1.43417 -1.77968,-1.24211 -1.70368,0.24205 -2.32397,0.69528 -2.51162,1.83521 -0.0895,0.54396 -0.65148,2.09181 -1.24875,3.43964 -1.44554,3.26208 -4.10151,6.26622 -6.82417,7.71875 -4.48455,2.39248 -9.17874,1.69996 -12.72845,-1.87779 -2.34368,-2.36221 -3.76961,-6.38064 -3.5355,-9.96343 l 0.0827,-1.26631 -3.24005,-2.31468 c -13.414361,-9.58319 -17.278323,-12.42299 -17.614693,-12.9458 -1.339341,-2.0817 0.999768,-3.89188 3.537469,-2.73755 0.433149,0.19702 4.827283,3.26533 9.764732,6.81844 4.937452,3.55311 9.009522,6.35459 9.049052,6.2255 0.34368,-1.12242 2.15884,-3.83623 3.4595,-5.1722 5.03262,-5.16921 11.86744,-5.64396 16.39534,-1.13882 1.37296,1.36604 2.84816,4.12064 3.15245,5.88645 0.15223,0.88336 0.19032,0.91317 0.90774,0.7103 0.41186,-0.11648 1.47505,-0.226 2.36264,-0.24337 l 1.6138,-0.0316 0.9827,-2.13746 c 1.33537,-2.9045 3.39141,-5.13636 6.05323,-6.57085 1.67093,-0.90049 2.34783,-1.10854 4.37667,-1.34519 1.32002,-0.15397 2.4343,-0.31446 2.47617,-0.35665 0.204,-0.20554 -1.27601,-2.85642 -2.49149,-4.46256 -0.75178,-0.99343 -2.74309,-4.04017 -4.42511,-6.77056 -5.28033,-8.57143 -8.17078,-12.05349 -12.83982,-15.46784 -3.1808,-2.32606 -7.69506,-4.37112 -11.76016,-5.32764 -5.0382,-1.18548 -12.14616,-0.86311 -17.888823,0.81131 l -0.848577,0.24742 -0.01518,2.29121 c -0.01806,2.73393 -0.677679,4.91049 -1.799694,5.93831 -0.835312,0.76518 -1.111306,0.80891 -1.798443,0.28496 -0.41995,-0.32023 -0.521881,-0.76204 -0.656368,-2.8449 -0.408847,-6.33197 -2.406398,-10.37662 -6.041262,-12.23239 -6.325405,-3.229371 -13.312303,2.43651 -13.312303,10.79535 0,4.76714 1.839032,8.5255 5.28766,10.80615 2.263683,1.49704 2.928855,2.93832 1.882022,4.07796 -0.444483,0.4839 -0.706034,0.53858 -2.024608,0.42336 -0.857623,-0.075 -2.004405,-0.39068 -2.644747,-0.72814 -1.389707,-0.73238 -1.190684,-0.96566 -3.464007,4.06025 -2.875848,6.35798 -4.462491,12.48902 -5.510758,21.29442 -0.596426,5.00995 -1.267854,8.74393 -2.029862,11.28854 l -0.54056,1.80512 1.222385,1.12626 c 2.019009,1.86022 20.312881,16.02169 26.422731,20.45408 8.271754,6.00074 14.709034,9.69062 21.840314,12.51896 1.18802,0.47119 2.29862,0.86257 2.46801,0.86974 0.16939,0.007 0.83029,-0.27509 1.46867,-0.62726 z m 7.94347,-11.04075 c -0.33,-0.0624 -1.24802,-0.29501 -2.04002,-0.51685 -0.79202,-0.22183 -2.4571,-0.48954 -3.7002,-0.59489 -1.93868,-0.1643 -2.32276,-0.27567 -2.70004,-0.78291 -0.57991,-0.77965 -0.56456,-0.88323 0.28736,-1.93955 1.48272,-1.83842 3.9116,-2.14675 8.23024,-1.04475 4.79751,1.2242 6.98678,0.88489 9.56586,-1.4826 1.24384,-1.14179 1.44218,-1.20934 1.87679,-0.63923 0.48334,0.63403 -0.12183,1.79584 -1.81556,3.48542 -2.97132,2.96407 -6.28112,4.16301 -9.70443,3.51536 z m -7.3603,-25.12937 c 1.65869,-0.88708 3.79738,-3.1491 4.67799,-4.94777 1.57266,-3.21221 2.00614,-7.23216 1.03645,-9.61162 -1.12505,-2.76069 -3.41764,-4.3292 -6.32774,-4.3292 -1.45599,0 -1.9301,0.12998 -3.44259,0.94377 -3.08744,1.66117 -5.24123,4.80717 -5.99873,8.76221 -0.78101,4.07785 0.65805,7.80553 3.60138,9.32893 1.6561,0.85716 4.7062,0.78801 6.45324,-0.14632 z m -2.77682,-2.79076 c -1.42149,-0.83967 -1.80522,-3.27355 -0.84303,-5.34704 0.95233,-2.05225 3.06796,-3.07142 4.66003,-2.24491 1.86948,0.97054 1.99638,4.1842 0.25069,6.34869 -1.25063,1.55066 -2.76414,2.01327 -4.06769,1.24326 z m 32.0927,-0.11001 c 3.14,-2.35192 5.10151,-7.09889 4.47002,-10.81777 -0.35018,-2.06222 -0.87338,-3.14336 -2.08139,-4.30097 -1.79956,-1.72447 -4.54444,-2.13693 -7.15219,-1.07475 -3.84003,1.56411 -6.8743,7.88409 -5.57012,11.60179 0.38114,1.08648 1.77951,2.75918 2.30665,2.75918 0.12742,0 0.23165,-0.75659 0.23165,-1.68132 0,-1.965 0.2678,-2.86974 1.15529,-3.90309 1.25619,-1.46264 2.95506,-1.84641 4.28004,-0.96687 1.93321,1.2833 1.43523,5.27795 -0.87491,7.01836 -0.51737,0.38978 -0.91148,0.81852 -0.87579,0.95278 0.0649,0.24411 2.15453,1.1345 2.75221,1.1727 0.17424,0.0111 0.78556,-0.33089 1.35854,-0.76004 z m -8.30132,-45.72224 c 1.20322,-2.12884 1.50723,-3.15257 1.64171,-5.52839 0.21131,-3.73308 -0.8792,-6.07093 -3.47735,-7.45478 -3.25692,-1.73473 -7.80744,-0.2538 -10.12968,3.2966 l -0.48084,0.73515 2.20911,1.5246 c 2.76379,1.90741 5.91306,4.74669 7.76329,6.99911 0.78083,0.95057 1.49142,1.72835 1.57909,1.72845 0.0877,8e-5 0.49029,-0.58526 0.89467,-1.30074 z"
       id="path1" />
  </g>
</svg>
